<svg height="473" viewBox="0 0 1417.002 473" width="1417.002" xmlns="http://www.w3.org/2000/svg"><path d="m104.833 5.5h933v463h-933z" fill="#f3f3f3"/><path d="m104.833 5.5h933v463h-933z" fill="none" stroke="#252525" stroke-dasharray="18 15" stroke-width="3"/><path d="m87.833 259.005h62.4" fill="none" stroke="#474545" stroke-width="4"/><path d="m150.233 259.005-3.2 4.8 12.8-4.8-12.8-4.8z" fill="#474545" stroke="#474545" stroke-width="4"/><path d="m87.833 328.612h62.4" fill="none" stroke="#474545" stroke-width="4"/><path d="m150.233 328.612-3.2 4.8 12.8-4.8-12.8-4.8z" fill="#474545" stroke="#474545" stroke-width="4"/><path d="m565.833 185.904h215v215.809h-215z" fill="#dcdcdc"/><path d="m565.833 185.904h215v215.809h-215z" fill="none" stroke="#474545" stroke-width="3"/><path d="m348.833 239.904h143v107.809h-143z" fill="#dcdcdc"/><path d="m348.833 239.904h143v107.809h-143z" fill="none" stroke="#474545" stroke-width="3"/><path d="m162.833 239.904h143v107.809h-143z" fill="#dcdcdc"/><path d="m162.833 239.904h143v107.809h-143z" fill="none" stroke="#474545" stroke-width="3"/><path d="m601.833 42.285h143v107.809h-143z" fill="#dcdcdc"/><path d="m601.833 42.285h143v107.809h-143z" fill="none" stroke="#474545" stroke-width="3"/><path d="m1158.74 258.505v17.52h-29.631v33.62h29.631v18.467l59.262-35.04z" fill="#dcdcdc"/><path d="m1086.933 275.999h43.333v33.619h-43.333z" fill="#dcdcdc"/><path d="m1057.99 258.505v17.52h29.63v33.62h-29.63v18.467l-59.263-35.04z" fill="#dcdcdc"/><path d="m854.727 221.309h144.5v145h-144.5z" fill="#dcdcdc"/><path d="m854.727 221.309h144.5v145h-144.5z" fill="none" stroke="#474545" stroke-width="3"/><path d="m1218.502 221.309h194v145h-194z" fill="#dcdcdc"/><path d="m1218.502 221.309h194v145h-194z" fill="none" stroke="#474545" stroke-width="3"/><text transform="translate(1315.002 288.791)"><tspan fill="#656565" font-family="Avenir-Medium" font-size="30" x="-69.195" y="4.5">Computer</tspan></text><text transform="translate(1120.367 254.268)"><tspan fill="#656565" font-family="Avenir-Medium" font-size="30" x="-68.64" y="4.5">USB cable</tspan></text><text transform="translate(926.477 293.309)"><tspan fill="#656565" font-family="Avenir-Medium" font-size="30" x="-28.35" y="-14.667">USB </tspan><tspan fill="#656565" font-family="Avenir-Medium" font-size="30" x="-60.3" y="26.333">Interface</tspan></text><text transform="translate(672.833 300.619)"><tspan fill="#656565" font-family="Avenir-Medium" font-size="29" x="-101.804" y="1.507">Microprocessor</tspan></text><text transform="translate(672.833 95.689)"><tspan fill="#656565" font-family="Avenir-Medium" font-size="30" x="-56.67" y="8.833">Memory</tspan></text><text transform="matrix(0 -1 1 0 43.667 295)"><tspan fill="#656565" font-family="Avenir-Medium" font-size="30" x="-65.04" y="-13.667">Analogue </tspan><tspan fill="#656565" font-family="Avenir-Medium" font-size="30" x="-42.225" y="27.333">Inputs</tspan></text><text transform="translate(236.299 295)"><tspan fill="#656565" font-family="Avenir-Medium" font-size="30" x="-65.04" y="-14.667">Analogue </tspan><tspan fill="#656565" font-family="Avenir-Medium" font-size="30" x="-34.995" y="26.333">input</tspan></text><text transform="translate(419.833 293.309)"><tspan fill="#656565" font-family="Avenir-Medium" font-size="30" x="-32.235" y="5.833">ADC</tspan></text><g fill="none"><path d="m489.367 293.809h74" stroke="#474545" stroke-width="4"/><path d="m305.833 293.809h43" stroke="#474545" stroke-width="4"/><path d="m674.833 151.197v34.707" stroke="#474545" stroke-width="4"/><path d="m854.727 295.5h-73.894" stroke="#474545" stroke-width="4"/></g></svg>